<svg width="113" height="113" viewBox="0 0 113 113" fill="none" xmlns="http://www.w3.org/2000/svg">
<g filter="url(#filter0_d_0_230)">
<rect x="16.3331" y="16.3333" width="80.3342" height="80.3342" rx="10.6667" fill="white" shape-rendering="crispEdges"/>
<path d="M56.5002 79.9798C43.5529 79.9798 33.0206 69.4475 33.0206 56.5002H36.3749C36.3749 67.5977 45.4027 76.6255 56.5002 76.6255C67.5976 76.6255 76.6255 67.5977 76.6255 56.5002H79.9797C79.9797 69.4475 69.4474 79.9798 56.5002 79.9798Z" fill="#006B6A"/>
<path d="M56.5002 73.2713C47.2526 73.2713 39.7291 65.7478 39.7291 56.5002H43.0833C43.0833 63.898 49.1024 69.9171 56.5002 69.9171C63.8979 69.9171 69.917 63.898 69.917 56.5002H73.2713C73.2713 65.7478 65.7477 73.2713 56.5002 73.2713Z" fill="#006B6A"/>
<path d="M56.5002 63.2088C52.8005 63.2088 49.7917 60.2001 49.7917 56.5004C49.7917 52.8007 52.8005 49.7919 56.5002 49.7919C60.1999 49.7919 63.2086 52.8007 63.2086 56.5004C63.2086 60.2001 60.1999 63.2088 56.5002 63.2088ZM56.5002 53.1462C54.6503 53.1462 53.146 54.6505 53.146 56.5004C53.146 58.3502 54.6503 59.8546 56.5002 59.8546C58.35 59.8546 59.8544 58.3502 59.8544 56.5004C59.8544 54.6505 58.35 53.1462 56.5002 53.1462ZM56.5002 33.0209C52.4478 33.0174 48.4637 34.0644 44.9366 36.0596C41.4094 38.0548 38.4596 40.9301 36.3749 44.4051V36.3751H33.0206V49.7919H46.4375V46.4377H39.0784C42.6439 40.2576 49.2349 36.3751 56.5002 36.3751C61.8753 36.3751 66.9301 38.4681 70.7304 42.2701L73.1035 39.897C70.9286 37.7093 68.3412 35.975 65.4911 34.7947C62.641 33.6144 59.585 33.0114 56.5002 33.0209Z" fill="#006B6A"/>
</g>
<defs>
<filter id="filter0_d_0_230" x="0.333092" y="0.333252" width="112.334" height="112.334" filterUnits="userSpaceOnUse" color-interpolation-filters="sRGB">
<feFlood flood-opacity="0" result="BackgroundImageFix"/>
<feColorMatrix in="SourceAlpha" type="matrix" values="0 0 0 0 0 0 0 0 0 0 0 0 0 0 0 0 0 0 127 0" result="hardAlpha"/>
<feOffset/>
<feGaussianBlur stdDeviation="8"/>
<feComposite in2="hardAlpha" operator="out"/>
<feColorMatrix type="matrix" values="0 0 0 0 0 0 0 0 0 0 0 0 0 0 0 0 0 0 0.1 0"/>
<feBlend mode="normal" in2="BackgroundImageFix" result="effect1_dropShadow_0_230"/>
<feBlend mode="normal" in="SourceGraphic" in2="effect1_dropShadow_0_230" result="shape"/>
</filter>
</defs>
</svg>
